<?xml version="1.0" encoding="UTF-8" standalone="no"?>
<!DOCTYPE svg PUBLIC "-//W3C//DTD SVG 1.1//EN" "http://www.w3.org/Graphics/SVG/1.1/DTD/svg11.dtd">
<svg xmlns="http://www.w3.org/2000/svg" xmlns:xlink="http://www.w3.org/1999/xlink" version="1.1" width="1653.5556pt" height="2338.5833pt" viewBox="0 0 1653.5556 2338.5833">
<g enable-background="new">
<g id="Layer-1" data-name="Layer 1">
<clipPath id="cp0">
<path transform="matrix(2.7777777,0,0,-2.7777777,0,2338.5833)" d="M 0 841.89 L 595.28 841.89 L 595.28 0 L 0 0 Z "/>
</clipPath>
<g clip-path="url(#cp0)">
<path transform="matrix(2.7777777,0,0,-2.7777777,451.3944,1032.6403)" d="M 0 0 L 33.501 0 L 27.31 -15.709 L 13.834 -15.709 C 9.66 -15.709 6.052 -18.625 5.177 -22.708 L 2.635 -37.228 L 16.018 -37.228 L 10.003 -52.74 L -.629 -52.53 L -8.343 -97.147 L -16.38 -90.47 C -20.339 -87.18 -22.221 -82.014 -21.306 -76.949 L -8.713 -7.283 C -7.954 -3.067 -4.284 0 0 0 " fill="#c5363d"/>
<path transform="matrix(2.7777777,0,0,-2.7777777,554.6578,1179.1394)" d="M 0 0 L 7.243 0 L 9.08 23.872 L 9.59 29.584 L 9.181 29.584 L 7.548 23.872 Z M 2.958 52.74 L 24.075 52.74 L 23.361 -18.667 L 5.917 -18.667 L 6.427 -11.119 L -3.571 -11.119 L -5.916 -18.667 L -23.361 -18.667 Z " fill="#c5363d"/>
<path transform="matrix(2.7777777,0,0,-2.7777777,631.4358,1170.3544)" d="M 0 0 L 17.036 2.959 C 16.423 -.102 16.119 -2.142 16.119 -4.284 C 16.119 -7.04 16.629 -9.181 19.281 -9.181 C 21.933 -9.181 23.056 -7.141 23.056 -3.57 C 23.056 .307 21.728 3.061 16.527 9.999 C 11.221 17.036 7.448 22.444 7.448 31.012 C 7.448 41.519 13.263 51.005 28.462 51.005 C 42.132 51.005 47.232 43.559 47.232 33.563 C 47.232 32.237 47.232 30.298 47.027 28.462 L 30.299 25.502 C 30.706 28.36 30.911 30.195 30.911 32.237 C 30.911 34.991 30.502 37.03 27.646 37.03 C 24.992 37.03 24.075 35.295 24.075 32.031 C 24.075 27.136 26.217 23.77 29.278 19.688 C 36.418 10.202 39.683 5.815 39.683 -2.958 C 39.683 -15.3 33.052 -23.257 18.873 -23.257 C 7.753 -23.257 -.305 -18.362 -.305 -5.507 C -.305 -4.08 -.203 -1.938 0 0 " fill="#c5363d"/>
<path transform="matrix(2.7777777,0,0,-2.7777777,801.4444,1078.5429)" d="M 0 0 L -12.445 0 L -8.876 16.525 L 33.969 16.525 L 30.398 0 L 17.953 0 L 6.323 -54.882 L -11.63 -54.882 Z " fill="#c5363d"/>
<path transform="matrix(2.7777777,0,0,-2.7777777,911.9386,1032.6403)" d="M 0 0 L 17.955 0 L 6.325 -54.881 L 25.096 -54.881 L 21.524 -71.407 L -15.098 -71.407 Z " fill="#c5363d"/>
<path transform="matrix(2.7777777,0,0,-2.7777777,1044.5394,1179.1394)" d="M 0 0 L 7.243 0 L 9.08 23.872 L 9.59 29.584 L 9.182 29.584 L 7.55 23.872 Z M 2.96 52.74 L 24.075 52.74 L 23.361 -18.667 L 5.917 -18.667 L 6.428 -11.119 L -3.569 -11.119 L -5.916 -18.667 L -23.358 -18.667 Z " fill="#c5363d"/>
<path transform="matrix(2.7777777,0,0,-2.7777777,1158.4419,1032.6403)" d="M 0 0 L 16.935 0 L 18.974 -35.704 L 19.281 -35.704 L 19.687 -32.542 L 26.625 0 L 43.763 0 L 28.768 -71.407 L 11.833 -71.407 L 9.793 -35.704 L 9.488 -35.704 L 9.079 -38.865 L 2.142 -71.407 L -14.995 -71.407 Z " fill="#c5363d"/>
<path transform="matrix(2.7777777,0,0,-2.7777777,1301.8067,1032.6403)" d="M 0 0 L 37.541 0 L 34.175 -15.709 L 13.67 -15.709 L 11.223 -26.93 L 26.114 -26.93 L 22.851 -42.129 L 8.061 -42.129 L 5.202 -55.494 L 25.708 -55.494 L 22.342 -71.407 L -15.199 -71.407 Z " fill="#c5363d"/>
<path transform="matrix(2.7777777,0,0,-2.7777777,463.78028,1302.4927)" d="M 0 0 L 6.417 17 L 322.517 17 L 318.267 0 Z " fill="#3c4344"/>
</g>
<symbol id="font_1_3">
<path d="M .40100003 0 C .46400006 0 .57500007 .008 .63600006 .021000002 C .674 .030000002 .684 .054000006 .69000008 .094000007 L .71500006 .24900002 C .721 .293 .70900008 .303 .66 .303 L .477 .303 C .45700003 .303 .45100004 .29500003 .449 .274 C .445 .25 .449 .24300002 .46900005 .24100001 L .568 .23300001 C .58900007 .23100002 .59400007 .22300002 .59000006 .20400001 L .574 .099 C .57100006 .078 .56 .071 .541 .068 C .508 .065000008 .46100004 .059000005 .39000003 .059000005 C .22800002 .059000005 .125 .082 .157 .286 C .185 .45900003 .26200003 .509 .467 .509 C .58100005 .509 .662 .49800004 .711 .49100004 C .731 .48700003 .739 .49400003 .74300006 .52000007 C .74700006 .545 .744 .55200007 .722 .556 C .702 .559 .602 .575 .47100003 .575 C .16600001 .575 .063999999 .47500003 .033 .285 C 0 .073 .08 0 .40100003 0 Z "/>
</symbol>
<symbol id="font_1_1">
<path d="M .75000008 0 C .80300006 0 .81000009 .010000001 .79600009 .045 L .62000009 .507 C .605 .54800006 .58800008 .555 .541 .555 L .44000004 .555 C .39400003 .555 .374 .549 .34500004 .507 L .013000001 .028 C 0 .009000001 .011000001 0 .045 0 C .07700001 0 .091000009 .001 .106000009 .021000002 C .11000001 .025 .179 .128 .179 .128 C .194 .147 .20400001 .15300001 .229 .15300001 L .59000006 .15300001 C .61600008 .15300001 .623 .148 .62900009 .128 C .62900009 .128 .665 .031000002 .669 .025 C .68100008 .0050000005 .69600006 0 .75000008 0 M .26500003 .21300002 C .25000004 .21300002 .24500002 .22700002 .254 .23900001 L .41600005 .47700004 C .42800004 .49400003 .43700005 .497 .45700003 .497 L .46900005 .497 C .48900003 .497 .495 .49500004 .50100007 .47700004 L .58900007 .23900001 C .59300008 .22600001 .586 .21300002 .57000008 .21300002 L .26500003 .21300002 Z "/>
</symbol>
<symbol id="font_1_4">
<path d="M .57600006 .285 C .656 .305 .702 .335 .71500006 .418 C .73200008 .526 .644 .556 .49700005 .556 L .15100001 .556 C .10000001 .556 .083000008 .542 .07700001 .498 L .0050000029 .046 C 0 .011000001 .003000006 .001 .05600001 .001 C .10800001 0 .11600001 .009000001 .12200001 .046 L .14800002 .20600002 C .15 .22700002 .16200002 .231 .18100001 .231 L .37800003 .22900002 C .49700005 .22800002 .563 .209 .552 .11900001 L .54300007 .05 C .538 .012000001 .545 .001 .61 .001 C .65500006 .001 .66400006 .0060000007 .667 .027 C .66800007 .032 .66800007 .038 .669 .045 L .67800006 .13700001 C .685 .202 .64100006 .23000002 .569 .24300002 C .555 .246 .54 .24700001 .54300007 .263 C .545 .278 .555 .28 .57600006 .285 M .19000001 .288 C .17100002 .288 .161 .292 .16400002 .311 L .19000001 .474 C .193 .49600003 .20400001 .498 .223 .498 L .45100004 .498 C .55700007 .498 .6 .483 .586 .393 C .57100006 .295 .49400003 .293 .39000006 .29 L .19000001 .288 Z "/>
</symbol>
<symbol id="font_1_2">
<path d="M .572 0 C .593 0 .6 .008 .60400006 .032 C .607 .052 .602 .062000004 .58100005 .062000004 L .15500002 .062000004 C .135 .062000004 .12600002 .072000008 .13000001 .091000009 L .15200001 .23200001 C .154 .252 .16700001 .26200003 .18700002 .26200003 L .49 .26200003 C .51100006 .26200003 .519 .27100004 .523 .294 C .526 .31500004 .52000007 .32500003 .499 .32500003 L .19600003 .32500003 C .17600002 .32500003 .168 .33400003 .17100002 .354 L .18800001 .46300004 C .191 .483 .20300003 .492 .223 .492 L .629 .492 C .65000006 .492 .657 .50100007 .661 .52400007 C .66400006 .545 .66 .555 .639 .555 L .15100001 .555 C .10000001 .555 .083000008 .541 .07700001 .497 L .0060000049 .057000005 C 0 .014 .013000004 0 .06400001 0 L .572 0 Z "/>
</symbol>
<use xlink:href="#font_1_3" transform="matrix(44.28472,0,0,-44.28472,661.0228,1294.9695)" fill="#ffffff"/>
<use xlink:href="#font_1_1" transform="matrix(44.28472,0,0,-44.28472,763.14346,1294.5266)" fill="#ffffff"/>
<use xlink:href="#font_1_4" transform="matrix(44.28472,0,0,-44.28472,871.99526,1294.5709)" fill="#ffffff"/>
<use xlink:href="#font_1_1" transform="matrix(44.28472,0,0,-44.28472,974.0672,1294.5266)" fill="#ffffff"/>
<use xlink:href="#font_1_3" transform="matrix(44.28472,0,0,-44.28472,1081.2805,1294.9695)" fill="#ffffff"/>
<use xlink:href="#font_1_2" transform="matrix(44.28472,0,0,-44.28472,1187.2095,1294.5266)" fill="#ffffff"/>
</g>
</g>
</svg>
